<?xml version="1.0" standalone="no"?>
<!DOCTYPE svg PUBLIC "-//W3C//DTD SVG 20010904//EN"
 "http://www.w3.org/TR/2001/REC-SVG-20010904/DTD/svg10.dtd">
<svg version="1.0" xmlns="http://www.w3.org/2000/svg"
 width="310.000000pt" height="310.000000pt" viewBox="0 0 310.000000 310.000000"
 preserveAspectRatio="xMidYMid meet">
<metadata>
Created by potrace 1.14, written by Peter Selinger 2001-2017
</metadata>
<g transform="translate(0.000000,310.000000) scale(0.100000,-0.100000)"
fill="#000000" stroke="none">
<path d="M841 2793 c-1 -7 -8 -10 -15 -7 -8 3 -25 -4 -38 -17 -19 -18 -20 -21
-4 -15 15 5 17 4 8 -7 -9 -10 -8 -17 1 -26 9 -10 9 -12 -2 -9 -7 2 -16 -3 -19
-11 -3 -10 0 -12 13 -7 15 6 16 4 4 -10 -15 -19 -21 -47 -8 -38 12 7 11 -3 -1
-27 -8 -14 -7 -19 1 -19 7 0 9 -3 6 -7 -4 -3 -2 -12 5 -20 9 -11 7 -12 -7 -7
-15 6 -16 4 -7 -13 6 -11 8 -23 5 -27 -11 -10 -11 -46 0 -46 5 0 4 -7 -3 -15
-10 -12 -10 -15 0 -15 9 0 9 -4 -1 -17 -10 -11 -10 -14 -1 -9 13 8 17 -6 5
-18 -10 -10 -11 -46 -1 -46 5 0 4 -9 -2 -21 -7 -11 -9 -23 -6 -27 3 -3 6 1 6
8 0 7 3 10 6 7 4 -4 1 -13 -6 -22 -7 -8 -8 -15 -2 -15 5 0 12 -7 15 -14 4 -10
1 -13 -7 -10 -7 3 -13 -2 -13 -11 0 -8 5 -15 10 -15 5 0 4 -7 -3 -15 -10 -12
-10 -15 1 -15 12 0 12 -2 0 -9 -11 -7 -11 -9 0 -13 12 -4 11 -8 -1 -23 -13
-17 -13 -18 0 -10 13 8 13 7 1 -8 -13 -16 -8 -22 13 -18 5 1 4 -5 -3 -13 -7
-8 -9 -21 -5 -27 4 -8 3 -9 -4 -5 -7 4 -12 2 -12 -3 0 -6 6 -11 13 -11 8 0 7
-4 -3 -10 -14 -9 -7 -14 13 -11 4 1 0 -10 -8 -23 -11 -17 -13 -26 -5 -31 7 -4
8 -11 2 -18 -11 -14 -10 -46 3 -66 5 -10 4 -12 -3 -7 -7 4 -12 2 -12 -3 0 -6
6 -11 13 -11 8 0 7 -4 -3 -10 -12 -8 -12 -10 5 -10 17 0 17 -2 5 -10 -21 -13
-22 -53 -2 -45 12 5 12 1 -3 -15 -10 -11 -15 -23 -12 -27 4 -3 7 0 7 7 0 7 3
10 6 7 4 -4 1 -13 -6 -22 -10 -12 -9 -15 6 -15 17 0 17 -1 -1 -14 -16 -11 -17
-17 -7 -29 10 -11 10 -17 1 -22 -8 -6 -7 -10 2 -16 11 -7 11 -9 1 -9 -7 0 -10
-5 -7 -10 4 -6 12 -7 18 -3 7 4 6 -1 -2 -10 -14 -18 -21 -116 -9 -124 5 -2 8
-11 8 -19 0 -9 -5 -12 -11 -8 -8 5 -8 1 0 -13 6 -11 7 -23 4 -27 -11 -11 -10
-46 0 -46 6 0 7 -3 4 -7 -4 -3 -2 -12 5 -20 9 -11 7 -12 -7 -7 -13 5 -16 4
-11 -4 11 -18 16 -52 8 -52 -4 0 -7 -13 -7 -30 -1 -16 4 -30 9 -30 6 0 5 -5
-2 -12 -15 -15 -15 -28 -1 -28 5 0 7 5 3 12 -4 7 -3 8 5 4 9 -6 9 -11 0 -22
-6 -8 -8 -14 -5 -14 4 0 2 -10 -5 -22 -10 -18 -9 -20 5 -15 8 3 18 2 21 -4 4
-5 1 -8 -6 -7 -7 2 -13 -1 -14 -7 0 -5 -4 -16 -9 -24 -7 -11 -5 -13 9 -7 14 5
16 4 7 -7 -8 -10 -8 -17 -1 -24 8 -8 7 -13 -2 -18 -8 -5 -10 -4 -5 3 4 7 3 12
-3 12 -5 0 -9 -9 -8 -19 0 -11 5 -17 9 -15 13 8 9 -11 -4 -25 -8 -9 -8 -11 -2
-8 7 4 15 0 18 -9 4 -10 2 -13 -6 -8 -8 5 -9 2 -5 -9 3 -9 1 -19 -5 -23 -7 -5
-5 -12 7 -21 18 -13 18 -13 0 -13 -18 0 -18 -1 1 -16 10 -8 14 -13 8 -10 -7 3
-15 -1 -18 -10 -4 -11 -2 -15 8 -11 10 4 13 1 9 -8 -3 -8 -10 -12 -16 -8 -6 4
-7 1 -1 -8 13 -22 14 -42 1 -58 -9 -11 -9 -13 0 -8 14 9 15 -31 1 -50 -6 -7
-4 -14 3 -19 8 -5 9 -3 4 6 -6 9 -4 11 4 6 9 -6 8 -12 -4 -26 -12 -14 -13 -20
-4 -26 8 -5 10 -3 4 7 -5 8 -4 11 0 6 11 -9 14 -48 4 -42 -4 3 -10 -2 -13 -11
-3 -8 -2 -12 4 -9 6 3 10 0 11 -7 0 -7 2 -21 4 -31 3 -14 -1 -17 -13 -12 -13
5 -12 1 4 -16 10 -12 13 -19 7 -15 -8 4 -13 1 -13 -9 0 -9 4 -14 8 -11 5 3 9
-1 9 -9 0 -8 -3 -12 -7 -10 -4 2 -7 -9 -6 -25 1 -17 6 -30 11 -31 6 0 1 -4
-10 -9 l-20 -9 20 0 c17 -1 17 -3 5 -11 -8 -5 -10 -10 -4 -10 6 0 11 -13 10
-29 -1 -16 -5 -27 -11 -24 -5 3 -5 0 2 -7 6 -7 9 -20 6 -29 -4 -9 -2 -12 2 -8
5 4 15 -3 22 -15 11 -21 12 -22 13 -3 1 19 1 19 11 1 9 -15 13 -16 20 -5 5 8
9 9 9 3 0 -6 10 -10 23 -9 12 1 28 -3 36 -9 11 -8 13 -8 8 0 -8 14 90 13 112
0 9 -6 12 -5 7 2 -3 6 -2 13 4 17 5 3 10 1 10 -4 0 -6 5 -11 11 -11 6 0 8 7 5
16 -6 15 -4 15 10 3 17 -14 44 -21 43 -11 -3 20 2 31 14 28 6 -1 9 -1 5 1 -12
7 -9 38 4 52 10 11 10 13 1 7 -17 -9 -17 6 0 23 10 11 10 13 0 7 -7 -4 -13 -3
-13 1 0 5 6 15 13 22 7 8 7 11 1 8 -7 -4 -12 3 -12 18 0 16 5 22 12 18 7 -4 6
-1 -1 8 -9 11 -9 19 -2 26 8 8 8 13 0 17 -8 5 -8 13 0 28 10 18 9 20 -7 14
-15 -6 -16 -4 -7 5 6 6 9 18 6 27 -4 9 -2 13 4 9 5 -3 9 3 8 16 -2 13 -8 21
-16 19 -11 -3 -11 -1 -2 9 6 6 9 18 6 27 -5 11 -3 13 8 7 12 -8 12 -6 0 8 -12
16 -12 17 5 11 18 -6 18 -6 0 8 -19 15 -19 15 0 27 12 8 13 11 3 8 -17 -5 -19
18 -4 42 5 10 4 12 -3 7 -19 -11 -14 5 6 21 9 7 13 13 7 12 -23 -3 -27 2 -14
18 10 11 10 14 2 9 -7 -4 -13 -3 -13 1 0 5 6 15 13 22 6 8 7 11 2 8 -12 -6
-14 41 -2 60 4 6 1 14 -5 16 -10 4 -9 6 1 6 11 1 11 4 0 18 -10 11 -10 14 -1
9 6 -4 12 -2 12 3 0 6 -4 11 -9 11 -12 0 -9 33 4 42 6 5 6 8 -2 8 -11 0 -10
30 1 49 4 5 0 12 -6 14 -10 4 -10 6 0 6 6 1 12 6 12 12 0 5 -4 8 -8 5 -7 -4
-8 19 -3 67 1 5 5 6 10 3 5 -4 8 1 7 10 -1 8 -9 20 -17 25 -12 7 -12 9 1 9 13
0 13 1 0 10 -13 9 -13 10 0 10 9 0 11 3 5 8 -17 12 -16 32 3 32 14 0 14 2 3 9
-17 11 -23 39 -10 47 6 3 5 12 -3 22 -11 13 -11 15 3 10 20 -8 19 30 -2 43
-11 7 -10 9 6 10 15 0 16 2 5 7 -8 4 -16 13 -18 20 -1 8 2 11 8 7 5 -3 10 1
10 10 0 9 -4 14 -8 11 -5 -3 -9 1 -9 9 0 8 4 12 9 9 4 -3 8 -1 8 5 0 5 -5 13
-10 16 -8 5 -7 11 1 21 6 8 8 14 4 14 -4 0 -2 6 4 14 9 10 8 16 -4 26 -11 9
-12 17 -4 31 6 11 6 19 0 19 -11 0 -9 26 4 37 4 4 5 3 1 -4 -3 -6 -2 -14 3
-17 5 -4 8 1 7 10 -1 8 -9 20 -17 25 -11 7 -11 9 0 9 10 0 11 3 3 13 -9 10 -8
19 3 35 11 15 12 23 4 28 -8 5 -9 3 -4 -7 5 -8 4 -10 0 -6 -15 13 -15 39 0 34
9 -4 11 1 8 14 -3 10 -10 19 -15 19 -5 0 -2 8 8 18 17 16 17 17 0 20 -16 4
-16 5 -1 22 12 14 13 20 4 26 -8 5 -10 3 -4 -6 5 -9 4 -11 -3 -6 -9 5 -9 13
-2 26 12 23 13 33 2 26 -5 -3 -9 1 -9 9 0 8 4 12 9 9 10 -6 11 10 1 19 -9 10
-10 57 -1 57 4 0 8 -5 8 -12 0 -6 3 -8 7 -5 3 4 -2 17 -13 29 -14 16 -15 20
-4 16 11 -4 16 0 16 13 0 11 -7 19 -16 20 -10 0 -11 2 -2 6 6 2 9 10 5 16 -4
7 -8 36 -8 65 0 41 3 51 14 47 12 -5 12 -3 0 11 -15 18 -21 66 -7 58 4 -3 5
-10 2 -16 -4 -7 -2 -8 4 -4 13 8 5 36 -10 36 -6 0 -4 8 3 17 12 14 12 16 -1 9
-10 -5 -9 -3 2 6 15 13 15 15 0 27 -15 11 -15 11 3 6 19 -5 19 -4 2 9 -13 10
-15 16 -7 21 9 6 9 10 -1 16 -10 6 -11 9 -1 9 6 0 12 5 12 11 0 5 -4 8 -9 4
-10 -6 -7 27 4 45 3 6 0 10 -7 10 -9 0 -9 3 2 10 9 6 10 10 3 10 -7 0 -10 9
-7 20 2 11 6 29 8 40 3 11 1 18 -5 15 -5 -4 -9 -1 -9 4 0 6 6 11 13 11 7 0 8
3 2 8 -16 11 -19 45 -3 37 10 -6 11 -5 1 6 -15 15 -17 33 -4 25 5 -4 4 5 -2
19 -9 18 -20 25 -42 26 -16 0 -59 1 -95 2 -46 1 -68 -2 -76 -12 -9 -11 -12
-12 -19 -1 -6 9 -4 11 6 5 8 -5 11 -4 6 1 -14 15 -77 11 -78 -6 0 -10 -3 -8
-9 5 -5 11 -9 15 -9 8z"/>
<path d="M1375 2790 c3 -5 2 -10 -4 -10 -5 0 -8 -12 -5 -26 3 -18 1 -23 -7
-18 -8 4 -9 3 -5 -5 14 -23 17 -61 4 -61 -8 0 -9 -3 -3 -8 14 -10 16 -72 3
-72 -6 0 -5 -6 3 -16 9 -11 10 -17 1 -23 -7 -4 -8 -12 -2 -21 5 -9 5 -19 -1
-26 -7 -8 -7 -14 0 -18 6 -4 8 -13 4 -21 -3 -8 0 -15 7 -15 6 0 9 -4 6 -9 -3
-5 3 -11 14 -14 11 -3 18 -1 14 4 -3 5 2 6 10 3 9 -3 16 -11 16 -16 0 -6 6 -5
15 2 12 10 15 10 15 -1 0 -11 2 -11 10 1 5 8 10 10 10 3 0 -6 11 -10 25 -8 14
1 25 -3 25 -9 0 -7 3 -7 8 -1 4 6 13 11 21 13 11 2 12 0 3 -10 -8 -11 -7 -14
9 -14 10 0 19 4 19 9 0 5 6 5 13 -2 10 -8 17 -7 27 2 10 10 11 9 5 -2 -6 -11
-1 -13 23 -9 23 3 29 1 22 -7 -7 -9 -1 -12 22 -13 18 0 34 -6 36 -11 2 -6 10
-11 18 -11 8 0 14 -6 14 -12 0 -9 4 -8 10 2 8 13 10 12 10 -2 0 -16 11 -23 33
-19 5 1 6 -3 3 -8 -4 -5 1 -17 10 -25 11 -12 12 -16 2 -16 -8 0 -6 -5 5 -11 9
-6 15 -14 12 -20 -4 -5 -2 -9 3 -9 6 0 13 -7 16 -16 4 -10 2 -13 -7 -8 -8 5
-7 2 2 -9 7 -9 10 -17 6 -17 -4 0 -2 -6 4 -14 9 -11 9 -16 0 -22 -9 -5 -7 -11
6 -21 18 -13 18 -13 -1 -14 -10 0 -13 -3 -7 -6 8 -3 11 -14 7 -29 -4 -16 -2
-24 7 -24 9 -1 8 -4 -3 -11 -10 -5 -18 -15 -18 -22 0 -8 4 -7 10 3 6 10 9 5 8
-18 -1 -18 -4 -32 -9 -32 -4 0 -5 -10 -1 -22 3 -14 1 -19 -6 -14 -7 4 -10 -1
-7 -14 2 -11 0 -20 -5 -20 -5 0 -7 -9 -5 -19 2 -13 -1 -18 -9 -15 -8 3 -16 -2
-20 -11 -4 -11 -2 -14 7 -9 6 4 -4 -9 -23 -27 -19 -19 -38 -33 -42 -31 -5 2
-8 -4 -8 -13 0 -9 -4 -13 -10 -10 -5 3 -27 -3 -49 -13 -28 -14 -44 -16 -56 -9
-14 7 -16 6 -10 -3 6 -10 4 -12 -8 -7 -10 4 -17 2 -17 -5 0 -6 -6 -5 -17 3
-11 10 -14 10 -9 2 4 -7 4 -13 -1 -14 -4 0 -16 -2 -25 -4 -10 -2 -18 1 -18 7
0 6 -6 5 -15 -2 -12 -10 -15 -10 -15 1 0 9 -3 10 -8 4 -9 -12 -42 -13 -61 -1
-10 6 -12 6 -6 -3 5 -9 -1 -12 -21 -9 -17 2 -35 -3 -42 -12 -10 -11 -12 -11
-6 -1 5 10 3 12 -5 7 -8 -5 -9 -12 -2 -19 11 -15 12 -27 0 -48 -4 -9 -5 -20
-1 -23 11 -11 11 -66 0 -66 -6 0 -4 -7 3 -17 11 -13 11 -17 2 -20 -9 -3 -10
-10 -3 -23 7 -13 7 -21 0 -25 -7 -4 -7 -12 0 -25 13 -25 13 -33 -2 -24 -10 6
-10 5 -1 -7 10 -12 10 -18 0 -29 -9 -10 -9 -11 1 -6 7 4 12 1 12 -7 0 -8 7
-18 16 -21 8 -3 13 -2 10 2 -2 4 6 7 19 7 13 0 21 -3 19 -7 -2 -4 0 -9 6 -13
5 -3 10 2 10 12 0 15 2 15 9 4 11 -17 51 -22 51 -7 0 6 5 4 10 -4 5 -8 10 -11
10 -7 0 4 9 3 20 -3 14 -7 20 -7 20 0 0 10 50 3 60 -9 10 -12 30 -11 30 1 0 6
7 3 15 -8 8 -10 15 -14 15 -7 0 13 40 5 40 -8 0 -5 6 -9 14 -9 16 0 86 -65 86
-80 0 -5 6 -10 13 -10 9 0 9 -2 -1 -9 -10 -6 -8 -10 9 -14 18 -5 21 -9 12 -18
-8 -8 -7 -18 3 -37 7 -14 11 -29 8 -34 -3 -4 1 -8 8 -8 11 0 10 -2 0 -9 -11
-6 -10 -10 4 -15 12 -5 14 -10 7 -17 -12 -12 -6 -49 7 -49 10 0 8 -20 -4 -39
-6 -9 -5 -12 1 -8 7 4 11 -6 12 -26 1 -55 4 -67 15 -67 6 0 4 -5 -4 -10 -12
-8 -12 -10 -1 -10 11 0 11 -3 0 -17 -12 -14 -12 -16 0 -9 9 6 12 5 9 -5 -3 -8
-1 -22 4 -31 6 -12 5 -18 -2 -18 -6 0 -8 -5 -3 -12 4 -7 6 -24 4 -37 -1 -13 1
-21 6 -18 5 3 9 -5 9 -18 0 -13 -4 -21 -8 -19 -5 3 -5 10 -2 16 4 7 2 8 -4 4
-12 -7 -5 -36 9 -36 5 0 9 -7 9 -16 0 -8 -4 -13 -9 -10 -10 7 -8 -9 3 -36 4
-9 5 -21 2 -27 -4 -5 -1 -13 5 -17 8 -4 7 -9 -2 -15 -8 -5 -9 -9 -3 -9 6 0 10
-11 9 -25 -2 -14 1 -25 6 -25 6 0 7 -5 4 -10 -4 -6 -11 -7 -17 -4 -6 4 -6 -2
1 -15 7 -11 9 -21 5 -21 -4 0 1 -9 11 -20 14 -15 15 -20 4 -20 -11 0 -11 -2 1
-10 8 -5 11 -10 6 -10 -6 0 -1 -7 10 -16 10 -8 13 -13 7 -9 -18 9 -16 0 4 -16
11 -10 14 -10 9 -2 -4 7 -2 13 3 13 6 0 11 -4 11 -9 0 -5 7 -12 16 -15 12 -5
15 -2 10 11 -6 15 -4 15 14 -2 15 -14 20 -15 21 -4 0 8 4 6 9 -6 5 -11 9 -15
9 -9 1 7 12 14 26 16 13 3 22 1 19 -3 -3 -5 2 -9 11 -9 10 0 13 5 9 12 -4 7
-3 8 5 4 22 -14 63 -17 55 -5 -4 8 -3 9 5 5 18 -12 61 -15 61 -5 0 5 6 8 13 7
6 -2 11 3 9 10 -1 6 3 12 10 12 6 0 8 3 5 7 -4 3 -1 13 6 21 9 12 9 14 0 8
-10 -5 -12 7 -9 51 3 37 0 60 -7 65 -9 6 -9 8 1 8 7 0 10 5 7 10 -3 6 0 10 7
10 8 0 6 5 -5 11 -9 6 -14 15 -11 21 11 17 12 68 3 74 -5 3 -9 10 -9 15 0 6 4
8 9 5 11 -7 8 21 -4 31 -4 5 -5 1 0 -7 5 -8 4 -12 0 -7 -12 11 -14 47 -2 47 5
0 3 8 -4 17 -12 15 -12 16 6 10 19 -7 19 -6 3 7 -21 15 -24 31 -5 20 10 -6 10
-4 0 7 -7 7 -13 17 -13 22 0 4 6 5 13 1 9 -6 9 -4 1 7 -6 8 -11 33 -10 57 1
23 -3 42 -7 42 -4 0 -3 9 3 19 8 16 6 22 -7 30 -10 6 -13 11 -7 11 7 0 15 7
18 16 5 14 4 15 -8 5 -11 -10 -14 -9 -12 1 1 7 6 19 11 27 5 10 4 16 -3 19 -7
2 -10 8 -6 13 3 5 -1 9 -8 9 -9 0 -9 3 2 10 8 5 10 10 4 10 -6 0 -11 7 -11 15
0 8 5 15 11 15 8 0 8 2 0 8 -12 8 -28 45 -16 38 5 -3 9 1 9 9 0 8 -4 12 -8 10
-4 -3 -9 2 -12 9 -3 8 -1 17 6 20 9 3 9 5 0 5 -7 1 -10 8 -6 17 3 9 0 20 -8
25 -11 7 -11 9 -1 9 7 0 10 5 7 10 -4 6 -12 7 -18 3 -7 -4 -5 2 3 12 12 15 12
17 1 10 -11 -6 -13 -4 -8 8 4 10 2 17 -5 17 -7 0 -6 5 2 15 11 13 10 14 -4 9
-12 -5 -16 0 -17 22 -1 16 -1 33 0 37 1 5 -3 6 -9 2 -6 -3 -7 -12 -4 -18 4 -7
3 -8 -2 -4 -5 5 -9 12 -9 15 0 4 -4 13 -9 21 -7 10 -5 12 5 7 8 -4 5 0 -5 8
-11 9 -17 16 -13 16 5 0 2 6 -5 14 -7 8 -16 12 -20 9 -5 -2 -8 5 -8 16 0 12
-4 21 -10 21 -5 0 -10 5 -10 11 0 6 -10 19 -22 30 -22 17 -22 18 -4 19 20 0
20 0 0 16 -15 13 -16 15 -2 10 12 -4 15 -1 11 11 -4 10 -2 14 4 10 6 -4 13 3
16 14 4 13 10 18 18 14 7 -5 10 -3 7 6 -2 7 4 22 13 33 10 10 15 24 12 29 -4
7 1 8 13 3 10 -4 15 -4 11 0 -4 4 0 18 8 31 9 13 13 27 10 32 -2 5 2 11 10 15
8 3 15 16 15 30 0 14 5 28 10 31 8 5 7 11 -1 21 -9 11 -8 15 3 19 10 4 14 20
13 55 -1 27 2 47 7 44 5 -3 5 -10 2 -16 -4 -7 -2 -8 4 -4 8 4 8 15 2 31 -6 16
-6 25 0 25 6 0 10 5 10 11 0 5 -4 7 -10 4 -15 -9 -12 2 6 19 10 10 11 16 3 16
-9 0 -9 3 0 14 9 10 9 16 1 21 -8 5 -8 10 0 20 6 7 7 16 2 19 -11 6 -9 36 3
55 5 10 4 12 -3 7 -8 -5 -10 7 -8 39 2 25 -1 45 -6 45 -5 0 -6 5 -3 10 3 6 2
10 -4 10 -6 0 -9 16 -7 36 1 21 -3 38 -11 42 -7 4 -14 20 -15 35 -1 15 -8 27
-16 27 -7 0 -10 5 -7 11 4 6 -1 17 -11 25 -11 9 -13 13 -7 9 9 -4 11 0 6 12
-9 25 -34 53 -43 48 -4 -3 -11 2 -14 11 -4 10 -2 13 6 8 7 -4 8 -3 4 4 -4 7
-13 12 -21 12 -8 0 -17 5 -21 12 -4 7 -3 8 4 4 8 -5 10 -2 6 8 -3 9 -10 13
-15 10 -5 -3 -12 2 -15 10 -3 9 -12 16 -20 16 -8 0 -14 6 -14 14 0 13 -21 27
-45 31 -5 0 -9 6 -8 13 2 6 -3 9 -11 6 -8 -3 -21 4 -29 16 -11 15 -16 18 -20
8 -4 -10 -6 -10 -6 0 -1 6 -8 12 -17 12 -9 0 -12 5 -8 13 4 6 4 9 -1 5 -4 -4
-22 0 -39 9 -30 16 -31 16 -16 -3 9 -13 6 -11 -12 4 -17 16 -27 19 -30 11 -3
-8 -9 -7 -20 5 -12 12 -18 13 -21 3 -4 -9 -8 -9 -15 2 -8 11 -10 11 -15 0 -4
-10 -6 -10 -6 -1 -1 6 -6 12 -12 12 -5 0 -7 -6 -3 -12 6 -10 4 -10 -7 0 -15
14 -33 17 -25 4 3 -5 -1 -9 -9 -9 -8 0 -12 4 -10 8 6 9 -16 17 -33 12 -6 -3
-9 -10 -5 -16 3 -7 -4 -3 -17 8 -22 19 -23 19 -16 1 5 -15 4 -16 -6 -8 -7 6
-28 9 -46 8 -17 -1 -32 2 -32 8 0 5 -7 1 -16 -10 -8 -10 -13 -14 -10 -8 4 7
-6 14 -25 16 -24 4 -29 2 -24 -11 5 -12 2 -11 -14 3 -15 13 -20 14 -24 4 -4
-10 -6 -10 -6 0 -1 6 -6 12 -12 12 -5 0 -7 -4 -4 -10z m803 -295 c-3 -3 -9 2
-12 12 -6 14 -5 15 5 6 7 -7 10 -15 7 -18z"/>
<path d="M1587 1319 c7 -7 15 -10 18 -7 3 3 -2 9 -12 12 -14 6 -15 5 -6 -5z"/>
</g>
</svg>
